<?xml version="1.0" encoding="UTF-8" standalone="no"?>
<svg
   width="726.53998"
   height="726.53998"
   viewBox="0 0 726.53998 726.53998"
   fill="none"
   version="1.1"
   id="svg5"
   xmlns="http://www.w3.org/2000/svg"
   xmlns:svg="http://www.w3.org/2000/svg">
  <path
     d="m 141.299,530.374 c 8.977,31.839 35.67,56.769 69.397,64.614 V 726.54 H 208.88 C 97.7879,726.54 6.95296,639.815 0.381836,530.374 Z m 69.397,-398.823 c -41.703,9.701 -72.653,45.522 -72.653,88.227 0,50.157 42.693,90.818 95.358,90.818 52.665,0 95.359,-40.661 95.359,-90.818 0,-42.705 -30.951,-78.526 -72.655,-88.227 V 0 H 517.66 C 629.366,2.23588e-4 720.592,87.6865 726.261,197.982 H 583.916 c -10.25,-39.63 -47.818,-69.021 -92.594,-69.021 -52.665,0 -95.358,40.66 -95.358,90.817 0,42.706 30.951,78.526 72.654,88.227 v 110.529 c -41.703,9.701 -72.654,45.522 -72.654,88.228 0,42.705 30.951,78.526 72.654,88.226 V 726.54 H 256.105 V 594.988 c 41.704,-9.701 72.655,-45.521 72.655,-88.226 0,-50.157 -42.694,-90.817 -95.359,-90.818 -44.776,0 -82.343,29.392 -92.593,69.022 H 0 V 208.88 C 1.97918e-4,93.5188 93.5188,1.97969e-4 208.88,0 h 1.816 z M 726.54,517.66 c 0,115.361 -93.519,208.88 -208.88,208.88 h -3.633 V 594.988 c 41.703,-9.701 72.654,-45.521 72.654,-88.226 0,-42.706 -30.95,-78.527 -72.654,-88.228 V 308.005 c 33.728,-7.846 60.421,-32.775 69.398,-64.614 H 726.54 Z"
     fill="url(#paint1_linear_250_136)"
     id="path2"
     style="fill:url(#paint1_linear_250_136)" />
  <defs
     id="defs5">
    <linearGradient
       id="paint1_linear_250_136"
       x1="73.562202"
       y1="719.27502"
       x2="653.88599"
       y2="63.572201"
       gradientUnits="userSpaceOnUse">
      <stop
         stop-color="#377FEA"
         id="stop4" />
      <stop
         offset="1"
         stop-color="#8C45EF"
         id="stop5" />
    </linearGradient>
  </defs>
</svg>
