<?xml version="1.0" encoding="UTF-8" standalone="no"?>
<!-- Created with Inkscape (http://www.inkscape.org/) -->

<svg
   width="1920mm"
   height="1080mm"
   viewBox="0 0 1920 1080"
   version="1.1"
   id="svg1"
   xmlns="http://www.w3.org/2000/svg"
   xmlns:svg="http://www.w3.org/2000/svg">
  <defs
     id="defs1" />
  <g
     id="layer1"
     style="display:inline">
    <rect
       style="display:inline;fill:#ffffff;fill-opacity:1;stroke-width:0.467025"
       id="rect1"
       width="1920"
       height="1080"
       x="0"
       y="0" />
  </g>
  <g
     id="layer2"
     transform="translate(-0.07725886,24.282698)">
    <path
       d="m 1603.93,417.60042 v 24.10577 h 43.6314 V 393.4945 H 1603.93 Z M 726.59342,401.51523 c -0.56895,0.0438 -2.57076,0.17532 -4.42628,0.30681 -14.37442,1.00806 -26.09338,3.96648 -33.93427,8.59047 -12.20323,7.18791 -18.2733,18.84636 -19.91785,38.30689 -0.56896,6.90234 -0.4635,21.54162 0.23163,29.58421 2.08727,24.41266 10.05441,34.42779 33.70252,42.40418 5.05916,1.68766 11.6135,3.4631 20.69781,5.58885 4.21609,0.9855 9.92734,2.3883 12.70985,3.11125 15.13357,3.94508 20.02334,7.12254 21.60399,14.00333 1.09635,4.79969 1.09635,16.28306 0.0204,21.45462 -1.89632,8.96265 -7.60835,12.22789 -22.29923,12.66674 -19.30654,0.61363 -37.30651,-2.03798 -58.93207,-8.65622 -2.19197,-0.65751 -4.0467,-1.11793 -4.15219,-1.03016 -0.18943,0.24098 -7.65069,36.24635 -7.52443,36.378 0.27412,0.28489 7.25035,3.13358 10.47555,4.27307 12.62517,4.49249 25.96712,7.29808 41.62733,8.76632 4.0467,0.37264 19.41202,0.50352 24.66056,0.21865 28.15909,-1.57757 44.26199,-7.97638 53.34629,-21.21286 7.22956,-10.51944 9.86422,-25.6838 8.95725,-51.5647 -0.48427,-13.76234 -1.58062,-20.18348 -4.55254,-26.62618 -5.79595,-12.53508 -18.75833,-19.74539 -49.63679,-27.63401 -19.55909,-4.99678 -22.10982,-5.71974 -25.98792,-7.31963 -5.41717,-2.25741 -7.90401,-4.82125 -8.9996,-9.31374 -0.77995,-3.17746 -1.09638,-12.25021 -0.61132,-17.31244 0.84307,-8.744 4.23609,-12.33799 13.0463,-13.80623 7.1033,-1.18337 24.15473,-0.78917 38.88795,0.8985 5.6905,0.65751 15.70254,2.12575 23.37404,3.44078 3.43614,0.5913 5.48029,0.85461 5.52263,0.70139 0.12629,-0.41652 4.53176,-39.40247 4.44708,-39.46823 -0.14782,-0.17529 -8.53613,-1.86275 -13.40509,-2.69549 -10.20146,-1.77505 -19.11716,-2.87081 -30.89927,-3.7693 -2.97189,-0.21912 -25.73537,-0.46018 -28.03282,-0.28489 z m 568.87548,3.19956 c -0.2157,0.63549 -61.4398,209.67776 -61.4398,209.78709 0,0.0662 10.6403,0.0878 23.6443,0.0662 l 23.6751,-0.0662 5.3047,-19.94173 c 2.9104,-10.97907 5.3587,-20.16192 5.4434,-20.44679 l 0.1001,-0.48197 33.8919,0.0439 33.8766,0.0662 5.374,20.16116 c 2.9719,11.0884 5.4357,20.29281 5.4819,20.44602 0.085,0.21944 4.9275,0.26332 23.7289,0.21944 l 23.6058,-0.0662 -30.8969,-104.97027 -30.9201,-104.97027 -30.3964,-0.0658 c -24.191,-0.0438 -30.4119,0 -30.4735,0.21921 z m 42.0069,85.4664 c 6.2825,24.01845 11.4256,43.74152 11.4256,43.82929 0,0.10933 -10.4402,0.17477 -23.2131,0.17477 -19.2404,0 -23.1824,-0.0439 -23.0977,-0.28488 0.062,-0.17477 5.3125,-19.89784 11.6566,-43.82853 6.3442,-23.95301 11.6105,-43.54442 11.6797,-43.54442 0.062,0 5.2663,19.65762 11.5489,43.65375 z M 887.09657,457.83526 c -3.66713,0.19709 -8.13578,0.59207 -10.22226,0.87694 -27.35836,3.83498 -43.37734,18.82457 -47.73971,44.72703 -1.09638,6.50891 -1.11716,6.77145 -1.20184,31.29421 -0.10534,24.12778 -0.0204,27.76566 0.8007,33.83572 1.49673,11.13306 5.26935,20.97265 10.83434,28.18219 7.86166,10.21223 19.981,16.85203 35.59884,19.48208 7.1872,1.22726 12.09854,1.53368 21.52007,1.38047 11.25547,-0.19709 20.76092,-1.2927 32.35362,-3.76953 8.26201,-1.75311 20.44447,-5.39099 20.44447,-6.07006 0,-0.26332 -6.09085,-33.00344 -6.23868,-33.50696 -0.0838,-0.32876 -0.18943,-0.32876 -1.09634,-0.0662 -8.59925,2.71782 -23.29013,5.23777 -35.17769,6.02694 -5.227,0.35031 -16.31387,0.15321 -19.20108,-0.32876 -8.64158,-1.46824 -12.75143,-4.47093 -14.81711,-10.8913 -0.86463,-2.71782 -1.24345,-5.52264 -1.39127,-10.78197 l -0.12629,-4.53638 h 79.73456 v -16.17296 c 0,-16.78659 -0.18943,-23.97457 -0.75835,-29.25623 -2.57155,-24.25945 -12.75223,-39.18282 -31.53136,-46.19527 -4.74271,-1.75311 -11.29784,-3.19979 -17.45256,-3.79109 -3.26678,-0.32875 -11.73977,-0.59207 -14.33209,-0.43885 z m 8.21968,35.80826 c 4.5741,0.59207 7.50365,1.88477 9.92737,4.38316 3.43614,3.57167 4.46861,7.29731 4.49018,16.32618 l 0.0204,5.25933 h -38.14958 l -0.0632,-3.28679 c -0.16848,-9.02887 1.32734,-14.17887 5.18464,-17.90452 2.38213,-2.27897 5.33249,-3.7472 8.9157,-4.42628 3.07738,-0.59207 6.74451,-0.72372 9.67406,-0.35108 z m 273.26965,-35.69816 c -8.2844,0.5913 -17.9161,3.19902 -27.5478,7.45053 -3.7572,1.66534 -9.3623,4.60182 -12.2495,6.39881 l -2.2789,1.42435 -0.2541,-0.67907 c -0.1463,-0.3942 -1.178,-3.13357 -2.2712,-6.11394 l -1.9787,-5.43487 h -34.2538 v 110.99644 c 0,101.83669 0.023,110.9972 0.3387,110.9972 0.1848,0 9.9012,-1.38045 21.5809,-3.06812 11.6951,-1.68768 21.3499,-3.06815 21.4808,-3.06815 0.1694,0 0.2311,-9.29141 0.2311,-31.7323 V 613.3624 l 1.7477,0.39497 c 7.5067,1.73078 17.2847,3.06736 27.0858,3.72487 5.0969,0.32876 15.2984,0.154 18.6937,-0.32875 14.3129,-2.08187 24.2987,-7.99871 30.9585,-18.32027 1.6092,-2.47607 4.1114,-7.82317 5.1431,-10.95752 1.6015,-4.86436 2.6408,-10.10213 3.3569,-16.76426 0.2694,-2.54228 0.3387,-7.6484 0.4157,-29.80365 0.1077,-27.15203 0,-33.17897 -0.6698,-38.89795 -2.1096,-18.01384 -8.7694,-30.61514 -19.9641,-37.82468 -6.0669,-3.92275 -13.2349,-6.07006 -22.1891,-6.66213 -3.48,-0.24097 -4.0036,-0.24097 -7.3758,0.0224 z m -7.0679,39.42381 c 4.196,0.41653 6.8292,1.49057 9.0851,3.68176 2.2558,2.1912 3.5031,4.82125 4.0882,8.65622 0.4697,3.00193 0.4697,53.07682 0,55.88164 -1.0086,5.98306 -3.7726,9.75183 -8.5153,11.54882 -2.5253,0.96471 -4.5271,1.18337 -9.7164,1.03016 -4.7427,-0.13165 -9.4623,-0.63519 -14.9596,-1.55601 -3.3106,-0.56975 -7.8224,-1.4898 -9.316,-1.88477 l -0.8007,-0.24097 v -65.23928 l 0.9008,-0.81072 c 1.3935,-1.24882 5.528,-4.07597 7.9686,-5.43488 6.3673,-3.5501 12.1648,-5.3471 18.6321,-5.82907 0.2311,0 1.4167,0.0878 2.6332,0.19709 z m 361.3702,-39.53391 c -12.4343,0.76684 -28.3255,6.20172 -40.8213,13.95944 l -2.2558,1.4028 -1.0394,-2.76094 c -0.5621,-1.51212 -1.5784,-4.27383 -2.2482,-6.11471 l -1.2473,-3.33068 h -34.2692 v 110.99644 c 0,102.56042 0.015,110.9972 0.3388,110.9972 0.1848,0 9.9243,-1.38045 21.6194,-3.06812 11.7028,-1.68768 21.3499,-3.06815 21.4577,-3.06815 0.1309,0 0.2156,-11.68047 0.2156,-31.7323 v -31.73152 l 3.8573,0.81073 c 6.3596,1.33659 11.903,2.12575 20.5877,2.98037 4.9506,0.48197 18.7398,0.54741 22.1352,0.10932 6.5289,-0.85461 12.5343,-2.62928 17.4695,-5.23777 4.0498,-2.10343 6.5136,-3.96586 9.7164,-7.29731 6.1517,-6.39882 9.9089,-14.26587 12.0108,-25.20183 1.5629,-8.10804 1.6861,-11.24162 1.6861,-41.85676 0,-30.43883 -0.1231,-33.48464 -1.6861,-41.63733 -4.2731,-22.35235 -16.9845,-35.23852 -37.3027,-37.78003 -2.7409,-0.32875 -8.0302,-0.57051 -10.2245,-0.43885 z m -7.8995,39.53391 c 2.6563,0.26332 4.173,0.7014 6.2595,1.75311 3.226,1.64378 5.3125,4.55793 6.4443,8.98498 l 0.4696,1.86244 v 55.44432 l -0.4696,1.84011 c -1.3012,5.06223 -4.2577,8.5469 -8.4461,9.97125 -2.764,0.94239 -4.1575,1.07404 -9.316,0.94239 -4.6812,-0.13165 -7.6145,-0.41653 -13.389,-1.27114 -2.8872,-0.43809 -9.547,-1.75312 -11.1022,-2.1912 l -0.8007,-0.21944 v -65.28313 l 1.2164,-0.98627 c 6.8908,-5.71975 16.6149,-10.08058 24.137,-10.82586 2.4407,-0.26254 2.7564,-0.26254 4.9968,-0.0215 z m -455.6916,-38.8764 c -9.5054,2.58617 -24.3865,9.3353 -34.2507,15.53778 -1.6438,1.05171 -2.5708,1.51213 -2.6555,1.35814 -0.063,-0.15321 -0.7799,-3.44 -1.5598,-7.3412 l -1.4328,-7.05632 h -36.40036 v 153.62081 h 43.62986 v -93.75021 l 2.2759,-1.53445 c 7.5245,-5.06223 20.5923,-11.76825 33.3868,-17.1369 1.7709,-0.74529 3.2876,-1.42436 3.3723,-1.49057 0.085,-0.087 -0.6544,-9.57628 -1.6476,-21.08121 -0.9701,-11.50493 -1.7708,-21.10354 -1.7708,-21.32296 0,-0.5043 -0.5005,-0.48197 -2.9473,0.19709 z m 544.6329,79.3088 v 76.81041 h 43.6314 V 460.99117 H 1603.93 Z"
       fill="url(#paint0_linear_250_69)"
       id="path1"
       style="fill:#313131;fill-opacity:1;stroke-width:0.76992" />
    <path
       d="m 338.17024,593.15362 c 4.17621,14.81175 16.59342,26.40907 32.28441,30.05926 v 61.19948 h -0.8446 c -51.68157,0 -93.93893,-40.34539 -96.99586,-91.25874 z m 32.28441,-185.53765 c -19.40124,4.51297 -33.79938,21.17799 -33.79938,41.04503 1.5e-4,23.33323 19.8615,42.24942 44.36116,42.24942 24.50043,0 44.36208,-18.91619 44.36208,-42.24942 0,-19.86781 -14.39829,-36.53229 -33.79953,-41.04503 V 346.41702 H 513.2573 c 51.96737,0 94.40695,40.79288 97.04394,92.10412 h -66.22092 c -4.76812,-18.43653 -22.24456,-32.10956 -43.07477,-32.10964 -24.50043,0 -44.36208,18.9155 -44.36208,42.2495 0,19.86704 14.39906,36.53121 33.79953,41.04372 v 51.41918 c -19.40124,4.51251 -33.79953,21.17745 -33.79953,41.04449 0,19.86705 14.39906,36.53122 33.79953,41.04449 v 61.19948 h -98.86402 v -61.19948 c 19.40124,-4.51327 33.79953,-21.17744 33.79953,-41.04449 0,-23.33323 -19.86165,-42.24942 -44.36208,-42.24942 -20.82945,0 -38.30596,13.6738 -43.0747,32.10956 H 272.436 V 443.59107 c 0,-53.66758 43.50647,-97.17405 97.17405,-97.17405 h 0.8446 z m 239.97669,179.62235 c 0,53.66735 -43.50668,97.17404 -97.17404,97.17404 h -1.68921 v -61.19948 c 19.40047,-4.51327 33.79877,-21.17744 33.79877,-41.04449 0,-19.86704 -14.3983,-36.53198 -33.79877,-41.04449 v -51.41918 c 15.69022,-3.64943 28.10828,-15.24674 32.28433,-30.05926 h 66.57892 z"
       fill="url(#paint1_linear_250_69)"
       id="path2"
       style="fill:#313131;fill-opacity:1;stroke-width:0.76992" />
  </g>
</svg>
